<?xml version="1.0" standalone="no"?>
<!DOCTYPE svg PUBLIC "-//W3C//DTD SVG 20010904//EN"
 "http://www.w3.org/TR/2001/REC-SVG-20010904/DTD/svg10.dtd">
<svg version="1.0" xmlns="http://www.w3.org/2000/svg"
 width="512.000000pt" height="512.000000pt" viewBox="0 0 512.000000 512.000000"
 preserveAspectRatio="xMidYMid meet">
<metadata>
Created by potrace 1.11, written by Peter Selinger 2001-2013
</metadata>
<g transform="translate(0.000000,512.000000) scale(0.100000,-0.100000)"
fill="#000000" stroke="none">
<path d="M2266 4431 c-4 -6 -68 -133 -141 -281 -74 -149 -137 -270 -140 -270
-4 0 -121 77 -260 170 -140 94 -258 170 -262 170 -5 0 -33 -132 -63 -292 -29
-161 -56 -300 -59 -309 -5 -13 -41 -5 -246 57 -132 40 -268 81 -302 92 -43 13
-63 16 -63 8 0 -6 7 -56 15 -111 24 -154 45 -303 56 -380 5 -38 12 -85 15
-102 l6 -33 -48 0 c-27 0 -105 -6 -174 -14 -69 -8 -189 -20 -267 -27 -79 -7
-143 -14 -143 -17 0 -4 229 -318 296 -408 l24 -31 -117 -164 c-196 -276 -233
-329 -233 -337 0 -6 396 -168 441 -179 10 -3 19 -11 19 -19 0 -12 -48 -148
-161 -453 -28 -73 -49 -135 -47 -136 3 -2 399 62 575 92 l51 9 11 -90 c6 -50
17 -156 26 -236 21 -188 34 -293 39 -298 3 -2 119 67 260 152 140 86 261 159
269 162 9 3 34 -38 81 -138 38 -79 98 -205 134 -280 36 -76 68 -138 72 -138 3
0 98 104 209 230 112 127 207 230 212 230 4 0 49 -48 101 -107 173 -201 310
-353 316 -353 4 0 70 126 147 280 l140 280 263 -176 c144 -98 264 -175 265
-173 2 2 29 141 60 308 31 167 58 306 60 308 2 1 138 -37 302 -87 165 -49 301
-88 302 -86 4 3 -30 246 -72 520 -8 55 -14 101 -12 102 1 1 79 9 172 18 302
30 448 46 452 49 2 2 -76 118 -172 258 -96 139 -175 256 -175 260 0 3 112 88
249 189 138 101 248 186 246 190 -2 3 -133 57 -292 120 l-289 114 84 230 c46
127 94 260 107 295 14 36 23 66 21 68 -2 2 -142 -19 -311 -47 -169 -28 -309
-49 -310 -48 -4 4 -28 203 -54 446 -11 96 -21 175 -23 177 -2 2 -124 -71 -272
-161 -148 -91 -270 -163 -271 -162 -2 2 -21 41 -43 88 -104 222 -224 475 -227
478 -4 4 -34 -29 -244 -268 -95 -107 -176 -195 -181 -195 -4 0 -92 97 -195
215 -232 266 -221 255 -229 241z m1627 -1458 c-3 -186 -8 -426 -12 -533 l-6
-195 -80 -12 c-44 -6 -87 -12 -96 -12 -14 -1 -17 21 -22 157 -12 304 -36 788
-42 845 l-6 57 38 1 c21 0 74 6 118 14 44 7 87 13 96 14 15 1 16 -28 12 -336z
m-555 105 c54 -36 88 -97 102 -180 21 -132 -22 -274 -103 -343 -58 -50 -114
-73 -213 -87 l-84 -12 -2 -210 -3 -211 -125 -15 -125 -15 -3 524 c-1 288 0
527 3 530 12 12 346 50 426 48 75 -2 91 -5 127 -29z m-889 -111 c59 -29 104
-96 127 -189 27 -104 27 -471 0 -567 -47 -169 -132 -254 -285 -283 -177 -33
-292 38 -336 207 -27 104 -37 266 -25 397 17 184 47 276 117 358 83 97 284
135 402 77z m-778 -123 c97 -53 141 -172 119 -325 -25 -172 -139 -276 -328
-297 l-67 -7 -3 -211 -2 -211 -103 -12 c-56 -7 -114 -15 -129 -18 l-28 -5 0
530 0 530 33 6 c17 3 93 13 167 22 74 9 137 18 139 20 2 2 38 4 79 4 61 0 83
-5 123 -26z m2198 -709 c66 -33 79 -142 26 -211 -36 -47 -105 -78 -153 -69
-41 8 -98 59 -108 99 -15 60 41 162 101 187 33 13 104 10 134 -6z"/>
<path d="M3063 2853 c-22 -4 -23 -8 -23 -109 l0 -105 38 7 c83 15 112 45 112
122 0 73 -43 101 -127 85z"/>
<path d="M2225 2736 c-32 -33 -37 -77 -33 -322 3 -192 5 -214 22 -233 27 -30
70 -27 95 5 20 25 21 39 21 280 0 241 -1 255 -20 274 -27 27 -56 25 -85 -4z"/>
<path d="M1390 2505 c0 -117 -1 -115 72 -95 52 15 78 52 78 109 0 72 -19 91
-91 91 l-59 0 0 -105z"/>
</g>
</svg>
